<svg width="123" height="92" viewBox="0 0 123 92" fill="none" xmlns="http://www.w3.org/2000/svg">
<path fillRule="evenodd" clipRule="evenodd" d="M84.6467 1.1104C83.2625 1.0606 81.8782 1.34941 80.6234 1.94694L80.6134 1.9569C79.3686 2.47476 73.6721 5.59188 71.5509 6.76702C71.4214 6.58776 71.272 6.41846 71.1027 6.26908C76.122 3.17188 80.2648 1.21995 82.7546 0.731963C85.5974 0.178921 86.7576 1.69603 86.8247 1.78371L86.8277 1.7876C86.9174 1.93698 86.9871 2.10628 87.0269 2.28554C86.3796 1.64818 85.543 1.23986 84.6467 1.1104ZM41.9632 2.16604C43.3972 2.71377 49.3128 5.89064 51.0755 6.84669H51.0854C51.2348 6.66743 51.3942 6.50809 51.5734 6.35871C46.8629 3.5304 42.2918 1.42908 39.7423 0.93114C36.8244 0.373445 35.6692 1.98678 35.6692 1.98678C35.5696 2.14612 35.5098 2.32538 35.47 2.51459C36.1572 1.85731 37.0236 1.41912 37.9597 1.26974C39.3539 1.20999 40.7283 1.51871 41.9632 2.16604ZM56.3452 11.4571L56.3437 11.4576L56.3537 11.4676L56.3452 11.4571ZM57.1803 11.1788L56.3452 11.4571C55.2214 10.0775 53.8501 8.92591 52.3004 8.06167H52.2705V7.982C52.4498 7.67327 52.7386 7.45418 53.0772 7.35459C54.7304 8.29072 56.1346 9.59533 57.1803 11.1788ZM85.9613 13.2801H85.4932C85.4985 13.2985 85.5058 13.319 85.5138 13.3412C85.536 13.4031 85.5629 13.4783 85.5629 13.5589C85.6227 13.7681 85.5729 13.9872 85.4335 14.1465L85.1447 14.4851C85.0351 14.6146 84.8758 14.6943 84.6965 14.7042H84.2882L84.2484 14.9034C84.2982 15.1125 84.2484 15.3217 84.109 15.481L83.4716 16.218C83.3122 16.4072 83.0533 16.4769 82.8143 16.4072C81.7188 17.0744 80.723 17.891 79.8565 18.8272C79.976 19.106 80.0756 19.3749 80.1553 19.6239C81.4101 19.0164 82.5753 18.2496 83.6309 17.3433C83.5811 17.1541 83.621 16.945 83.7405 16.7956L84.587 15.6702C84.6965 15.5308 84.8459 15.4412 85.0252 15.4212H85.2941V15.242C85.2443 15.0528 85.2941 14.8536 85.4036 14.7042L85.7322 14.266C85.8418 14.1266 85.9912 14.037 86.1704 14.0171H86.529L86.4692 13.7581C86.4194 13.5689 86.4592 13.3598 86.5788 13.2104L87.8535 11.5273C87.963 11.3879 88.1124 11.2983 88.2917 11.2784L88.7498 11.2186L88.212 11.119H88.0626L88.0499 11.1448C88.0239 11.198 87.9958 11.2555 87.9531 11.2983L86.4393 13.051C86.3198 13.1805 86.1605 13.2602 85.9812 13.2701L85.9613 13.2801ZM79.0499 20.4007C78.9901 20.2015 78.9005 19.9226 78.7909 19.6438C77.5859 20.1716 74.8472 21.5161 72.8057 22.6713C72.8121 22.7301 72.8186 22.789 72.8252 22.848L72.8252 22.8481C72.8699 23.2483 72.9152 23.6554 72.9152 24.1153V24.444C74.429 23.7369 77.6158 22.0937 79.0499 20.4106V20.4007ZM50.2987 24.424V24.1054C50.2987 23.6454 50.3441 23.2384 50.3887 22.8381L50.3969 22.7642L50.4082 22.6613C48.3667 21.5061 45.628 20.1517 44.423 19.6338C44.3134 19.9226 44.2238 20.1915 44.1641 20.3907C45.6081 22.0738 48.7949 23.717 50.2987 24.424ZM36.6451 13.2203L35.3704 11.5373L35.3903 11.5473C35.2808 11.4078 35.1214 11.3182 34.9521 11.2983L34.494 11.2385L35.0318 11.1389H35.1812C35.2111 11.2087 35.2409 11.2684 35.2907 11.3182L36.8045 13.071C36.924 13.2004 37.0833 13.2901 37.2626 13.2901H37.7306C37.7254 13.3085 37.7181 13.3289 37.7101 13.3511L37.7101 13.3512C37.6879 13.4131 37.6609 13.4883 37.6609 13.5689C37.6012 13.7681 37.651 13.9971 37.7904 14.1565L38.0792 14.4951C38.1987 14.6245 38.3581 14.7042 38.5274 14.7142H38.9357L38.9755 14.9133C38.9257 15.1125 38.9755 15.3316 39.1149 15.491L39.7523 16.2279C39.9116 16.4171 40.1706 16.4868 40.4096 16.4171C41.4951 17.0844 42.5009 17.901 43.3674 18.8371C43.2478 19.106 43.1483 19.3849 43.0686 19.6338C41.8138 19.0263 40.6486 18.2595 39.5929 17.3533C39.6427 17.164 39.6029 16.9649 39.4834 16.8055L38.6369 15.6802C38.5274 15.5408 38.368 15.4511 38.1987 15.4312H37.9298V15.2519C37.9796 15.0727 37.9398 14.8735 37.8203 14.7142L37.4916 14.276C37.3821 14.1366 37.2227 14.0469 37.0534 14.027H36.6949L36.7547 13.7681C36.8045 13.5789 36.7646 13.3797 36.6451 13.2203ZM61.6916 88.0511C61.0742 87.5432 60.4965 86.9755 59.9687 86.378C61.2335 86.4776 62.5082 86.4776 63.783 86.378C63.2452 86.9855 62.6576 87.5531 62.0302 88.071V88.0511C61.9306 88.1208 61.7912 88.1208 61.6916 88.0511ZM42.3316 48.6141L42.1823 48.8829C42.1524 48.9427 42.1524 49.0124 42.1823 49.0722C42.3018 49.5004 42.6105 50.1975 43.1981 50.3668C44.9209 49.4506 46.5442 48.3651 48.048 47.1202L49.2829 46.1741C49.2132 45.4969 49.2132 44.8197 49.2829 44.1425C46.7633 45.2878 44.413 46.8015 42.3217 48.6141H42.3316ZM33.8467 56.372C33.9762 56.3122 34.0857 56.2226 34.1654 56.1131L34.1455 56.1031C36.197 53.8823 38.4178 51.8208 40.798 49.9485C41.0071 50.5062 41.3457 50.9942 41.7839 51.3826C39.7324 53.5935 37.5016 55.6251 35.1214 57.4774C34.982 57.4475 34.8525 57.3977 34.733 57.3181C34.5339 57.1986 34.2849 57.1687 34.0558 57.2484L31.9744 57.9853C31.7354 58.0749 31.5462 58.2741 31.4765 58.5231L31.4068 58.782L30.9686 58.5928C30.7694 58.5131 30.5503 58.5131 30.3611 58.5928L29.8532 58.7721C29.6042 58.8617 29.425 59.0708 29.3553 59.3198C29.3553 59.4025 29.3228 59.4811 29.2941 59.5505C29.2779 59.5897 29.2629 59.626 29.2557 59.6584L28.7378 59.4293C28.5386 59.3497 28.3195 59.3497 28.1204 59.4293L25.4414 60.3754C25.3618 60.4053 25.2821 60.4451 25.2124 60.4949L24.814 59.8974H24.9236C25.1228 59.9771 25.3419 59.9771 25.541 59.8974L27.961 58.8816C28.1801 58.792 28.3494 58.5928 28.4092 58.3638L28.4988 58.0451L28.8972 58.2144C29.0963 58.294 29.3154 58.294 29.5146 58.2144L30.1321 57.9455C30.3512 57.8559 30.5105 57.6666 30.5802 57.4376L30.64 57.2185L30.9586 57.338C31.1578 57.4177 31.3769 57.4177 31.5661 57.338L33.8467 56.372ZM52.5295 43.3657L52.5189 43.3674L52.5195 43.3657H52.5295ZM52.5189 43.3674L51.5037 45.8953H50.946C50.8664 45.1384 50.8664 44.3616 50.946 43.6048H50.9859L52.5189 43.3674ZM52.1411 15.4113C52.9975 14.4054 54.1229 13.6585 55.3877 13.2701V13.2801C55.3953 13.2954 55.4029 13.31 55.4104 13.3242L55.4104 13.3243C55.4322 13.366 55.4525 13.4049 55.4673 13.4494C54.4715 14.2859 53.3461 14.9831 52.1411 15.491V15.4113ZM65.5357 78.7794C65.2528 78.7965 64.9921 79.1457 64.8107 79.3887L64.8105 79.3888L64.8087 79.3913C64.7801 79.4296 64.7535 79.4652 64.7291 79.4964C64.5628 79.7165 64.4278 79.9559 64.2934 80.1944L64.2934 80.1944L64.2933 80.1944L64.2933 80.1945L64.2933 80.1945L64.2932 80.1946L64.2932 80.1946L64.2932 80.1947L64.2931 80.1947L64.2931 80.1948L64.2931 80.1948L64.293 80.1949L64.293 80.1949L64.293 80.1949L64.2929 80.195L64.2929 80.195L64.2929 80.1951L64.2928 80.1951L64.2928 80.1952L64.2927 80.1952L64.2927 80.1953L64.2927 80.1953L64.2926 80.1954L64.2926 80.1954L64.2926 80.1954L64.2925 80.1955L64.2925 80.1955L64.2925 80.1956L64.2924 80.1956L64.2924 80.1957C64.1533 80.4423 64.0147 80.688 63.8427 80.9106C63.4045 81.4782 62.817 81.9363 62.1597 82.2152C61.8808 82.3347 61.5621 82.2849 61.3331 82.0857C61.2627 82.0234 61.1916 81.9612 61.1202 81.8987C60.6662 81.5013 60.2007 81.0937 59.8393 80.6118C59.6301 80.323 59.4509 80.0143 59.3314 79.6856L59.309 79.6241C59.2012 79.3263 59.0507 78.9102 58.7438 78.7893C58.5731 78.7261 58.3582 78.707 58.1527 78.6888C58.0345 78.6783 57.9194 78.6681 57.8176 78.6499C56.9412 78.5005 56.0748 78.3312 55.2084 78.142L55.2377 78.1995C55.4891 78.6926 55.7677 79.2393 56.0649 79.7952C56.6425 80.7911 57.1969 81.6774 57.728 82.4542C57.9471 82.7629 58.206 83.0517 58.4749 83.3106C59.5604 83.4401 60.6659 83.5098 61.7613 83.5198C62.9265 83.5198 64.1017 83.4202 65.2569 83.2409V83.2608C65.4959 82.9621 67.3582 80.0541 67.5574 79.7354C67.8761 79.1877 68.1649 78.6897 68.4437 78.1818C66.8702 78.5304 65.6552 78.7794 65.6552 78.7794H65.5357ZM64.1116 70.7526C64.2709 70.2646 64.7091 69.8961 65.227 69.8363L65.2071 69.8164H65.2967C65.476 69.8164 69.2504 68.9799 71.9492 68.1832C71.8758 68.493 71.7962 68.8375 71.7122 69.2005C71.3861 70.6112 70.9951 72.3022 70.6546 73.3319H70.5948C67.6271 74.3676 64.5299 74.9452 61.3928 75.0448C58.6343 74.9851 55.8956 74.6066 53.2366 73.8896C52.6091 72.1269 52.1212 70.3243 51.7627 68.4919C52.8282 68.7707 54.1926 69.0994 55.4873 69.3882H55.4673C55.6701 69.4075 55.8635 69.4455 56.0476 69.5114C55.9438 69.4737 55.8395 69.4364 55.7263 69.4081C56.7321 69.6272 57.6782 69.8065 58.3853 69.8961C58.6741 70.1052 58.8733 70.4239 58.933 70.7725C59.2617 72.0372 59.9687 73.1825 60.9447 74.0489C61.2435 74.3178 61.7016 74.3178 62.0003 74.0489C62.9763 73.1526 63.7033 72.0173 64.1116 70.7526ZM53.7644 20.2612C56.0748 18.7375 58.7538 17.8811 61.5223 17.7715C64.1315 17.8014 66.681 18.5284 68.9217 19.8828C68.9914 19.843 69.0611 19.8031 69.1309 19.7832C70.2164 19.5243 70.5649 18.3591 70.5649 17.2935C68.9516 16.6661 65.5855 14.9831 65.3365 13.7382C65.2768 13.3797 65.3365 13.0112 65.4859 12.6826C64.1813 12.3838 62.8468 12.2543 61.5124 12.2842C59.9986 12.2344 58.4849 12.4535 57.0508 12.9415C57.1603 13.2203 57.1902 13.5191 57.1404 13.8179C56.9412 15.1026 53.3361 16.8254 51.9519 17.3632C51.932 18.6081 52.649 19.7533 53.7743 20.2812L53.7644 20.2612ZM70.2961 42.9176L71.8696 43.2462C71.9891 44.0429 72.0189 44.8596 71.9592 45.6662H71.4015L70.2961 42.9176ZM70.1267 7.84257L70.2164 7.78282C70.0371 7.48405 69.7483 7.255 69.4097 7.15541C67.8063 8.17121 66.3922 9.4559 65.237 10.9597C65.5357 11.0294 65.8345 11.0991 66.1233 11.1887C67.2486 9.8443 68.613 8.70899 70.1367 7.84257H70.1267ZM70.5251 48.7037C68.852 49.2813 67.1391 49.7593 65.3963 50.1178C65.7548 50.6855 65.9241 51.3428 65.8843 52.01C65.7847 53.0756 64.3307 54.3205 63.1257 55.157C66.0735 54.8881 68.9914 54.3304 71.8297 53.474L70.5351 48.6937L70.5251 48.7037ZM66.91 13.3598C66.9598 13.2303 67.0295 13.1108 67.1092 13.0013C69.7085 13.798 70.3558 14.9432 70.3658 15.1822V15.481C69.1109 14.9532 67.9458 14.2361 66.91 13.3598ZM60.0683 55.2068L60.0476 55.1956L60.0683 55.1968V55.2068ZM60.0476 55.1956C57.2861 55.0249 54.5545 54.4975 51.922 53.6233C52.3303 52.0499 52.9478 49.8091 53.2764 48.634C54.639 49.0815 56.4187 49.5986 57.8915 50.0265L57.8973 50.0282H57.9073L57.3994 50.8747V50.9743C57.1205 51.6216 57.1703 52.3785 57.5487 52.976C58.2015 53.8958 59.0604 54.6584 60.0476 55.1956ZM62.9664 65.2752C65.0876 63.9507 66.5316 61.7796 66.9399 59.3098C67.9956 59.0908 70.4952 58.553 72.6165 57.9754L72.6199 58.0732C72.6702 59.5102 72.7539 61.8993 72.6663 63.2038V63.154C69.5392 64.2893 66.2826 64.9963 62.9664 65.2752ZM80.474 48.3352C79.9218 47.8412 76.5336 45.8678 74.5709 44.7248L74.4091 44.6305L73.5028 44.0927C73.5626 44.7699 73.5426 45.4571 73.443 46.1243C74.9668 47.2397 78.6814 49.9286 79.5876 50.068C80.1951 49.9087 80.4839 49.1917 80.6134 48.7734H80.6333C80.6433 48.7037 80.6333 48.634 80.5935 48.5842L80.464 48.3452L80.474 48.3352ZM94.9143 58.5231L97.3343 59.5389L97.3144 59.5588C97.5135 59.6385 97.7326 59.6385 97.9318 59.5588H98.0015L97.5633 60.0667C97.4936 60.0169 97.414 59.9771 97.3343 59.9472L94.6554 59.0011C94.4562 58.9214 94.2371 58.9214 94.0379 59.0011L93.5201 59.2302C93.5201 59.1833 93.4994 59.1261 93.4743 59.0566C93.4567 59.0079 93.4369 58.9531 93.4205 58.8916C93.3508 58.6326 93.1715 58.4335 92.9225 58.3438L92.4146 58.1646C92.2155 58.0849 91.9964 58.0849 91.8071 58.1646L91.3689 58.3538L91.2992 58.0849C91.2295 57.8359 91.0403 57.6368 90.8013 57.5471L88.7199 56.8102C88.5008 56.7305 88.2419 56.7504 88.0427 56.8799C87.9232 56.9596 87.7838 57.0193 87.6443 57.0392C85.2642 55.1968 83.0334 53.1752 80.9819 50.9743C81.4201 50.5759 81.7587 50.088 81.9678 49.5402C84.3579 51.4224 86.5987 53.4939 88.6601 55.7247C88.7398 55.8442 88.8494 55.9238 88.9788 55.9836L91.2594 56.9496C91.4586 57.0293 91.6777 57.0293 91.8669 56.9496L92.1856 56.8301L92.2453 57.0492C92.3051 57.2782 92.4744 57.4675 92.6935 57.5571L93.3109 57.826C93.5101 57.9056 93.7292 57.9056 93.9284 57.826L94.3765 57.7065L94.4661 58.0052C94.5259 58.2343 94.6952 58.4235 94.9143 58.5231ZM56.6026 59.4592C54.7403 59.1306 52.9079 58.6824 51.0954 58.1247V58.1447C50.9958 59.4891 50.9958 61.8991 51.1054 63.632C54.2026 64.588 57.3994 65.1656 60.636 65.3549C58.3853 64.1399 57.0608 60.7937 56.6026 59.4493V59.4592ZM44.9309 69.1591C44.7317 69.1591 44.5425 69.1293 44.3433 69.0894C44.4728 71.6588 45.1101 78.5105 45.7873 80.4525C45.8073 80.5321 45.8073 80.6218 45.7873 80.7014L45.6479 82.6434C45.6479 82.8127 45.5583 82.982 45.4288 83.0916L45.3492 83.1613C45.4786 83.2907 45.5483 83.47 45.5384 83.6592L45.4388 85.3821C45.4288 85.5613 45.3392 85.7207 45.2097 85.8302L45.0504 85.9697L45.1699 86.0892C45.2994 86.2186 45.3691 86.3979 45.3591 86.5871L45.2496 88.0411C45.2197 88.2104 45.1301 88.3598 44.9906 88.4594L44.7118 88.6884L44.9408 88.9075C45.0803 89.037 45.15 89.2262 45.14 89.4154L45.0404 90.7599C45.0305 90.9391 44.9408 91.0985 44.8114 91.208L44.7018 91.2877H45.1101V91.1084L45.2894 89.5648C45.3093 89.3855 45.4089 89.2162 45.5583 89.1166C45.6977 89.027 45.8272 88.9274 45.9467 88.8278L45.6778 88.559C45.5284 88.4195 45.4487 88.2204 45.4786 88.0112L45.618 86.8062C45.638 86.6269 45.7376 86.4576 45.8869 86.358C46.0264 86.2684 46.1558 86.1688 46.2753 86.0692L46.0064 85.8103C45.8571 85.6709 45.7774 85.4717 45.8073 85.2626L45.9666 83.938C45.9865 83.7588 46.0861 83.5995 46.2255 83.4899L46.5641 83.231L46.3351 83.0119C46.1857 82.8725 46.116 82.6733 46.1359 82.4741L46.2853 81.2392C46.3152 81.0301 46.4347 80.8508 46.6239 80.7512C46.7534 80.6815 46.8729 80.5919 46.9625 80.4724C46.7036 76.6581 46.2455 72.8638 45.5782 69.0994C45.3691 69.1392 45.1599 69.1691 44.9508 69.1691L44.9309 69.1591ZM43.8255 63.7515C44.5325 65.3847 45.1799 66.9881 45.4089 67.7649C44.9707 67.9043 44.4927 67.8645 44.0844 67.6653L43.2976 66.1615C43.4669 65.4047 43.6462 64.598 43.8255 63.7515ZM44.4827 61.6701L44.5027 61.8892C44.5027 61.8892 44.5425 61.9788 44.5823 62.0087C44.8213 62.2079 45.2794 62.5066 45.6977 62.3672C46.355 61.1423 46.8828 59.8476 47.2712 58.5131L47.6297 57.4575C47.321 57.0791 47.0521 56.6807 46.8231 56.2525C45.7873 57.9355 45.0006 59.758 44.4827 61.6701ZM47.5899 55.2666H47.5999L48.4165 54.5097L48.8248 56.4118L48.4962 56.6309C48.1576 56.2126 47.8488 55.7645 47.5899 55.2666ZM76.2813 80.4724L76.2714 80.4624V80.4823L76.2813 80.4724ZM78.293 69.1591C78.4922 69.1492 78.6914 69.1293 78.8806 69.0894L78.9005 69.0795C78.781 71.6488 78.1337 78.5005 77.4565 80.4425C77.4365 80.5222 77.4365 80.6118 77.4565 80.6915L77.5959 82.6334C77.6058 82.8127 77.6855 82.972 77.815 83.0816L77.8946 83.1513C77.7552 83.2808 77.6955 83.46 77.7054 83.6492L77.805 85.3721C77.815 85.5514 77.8946 85.7107 78.0341 85.8203L78.1934 85.9597L78.0739 86.0792C77.9345 86.2087 77.8747 86.3879 77.8847 86.5771L77.9942 88.0311C78.0142 88.2004 78.1137 88.3498 78.2532 88.4494L78.532 88.6785L78.303 88.8976C78.1635 89.027 78.0938 89.2162 78.1038 89.4054L78.2034 90.7499C78.2133 90.9291 78.293 91.0885 78.4324 91.198L78.542 91.2777H78.1337V91.0985L77.9544 89.5548C77.9345 89.3756 77.8349 89.2063 77.6855 89.1067C77.556 89.0171 77.4266 88.9175 77.2971 88.8179L77.566 88.549C77.7154 88.4096 77.7851 88.2004 77.7652 88.0013L77.6258 86.7962C77.6058 86.617 77.5062 86.4477 77.3569 86.3481C77.2274 86.2585 77.0979 86.1589 76.9685 86.0593L77.2374 85.8004C77.3867 85.6609 77.4565 85.4518 77.4365 85.2526L77.2772 83.9281C77.2573 83.7488 77.1676 83.5895 77.0183 83.4799L76.6797 83.221L76.9087 83.0019C77.0581 82.8625 77.1278 82.6633 77.1079 82.4641L76.9585 81.2292C76.9386 81.0201 76.8091 80.8409 76.6199 80.7413C76.4904 80.6815 76.3709 80.5819 76.2813 80.4624C76.5402 76.6482 77.0083 72.8539 77.6656 69.0894C77.8648 69.1392 78.0839 69.1591 78.293 69.1591ZM77.815 67.7649C78.2532 67.9043 78.7212 67.8645 79.1395 67.6653L79.9262 66.1615C79.8437 65.7925 79.7611 65.4116 79.6763 65.02L79.6757 65.0175L79.6757 65.0172C79.5867 64.6066 79.4952 64.1842 79.3984 63.7515C78.6914 65.3847 78.044 66.9881 77.815 67.7649ZM79.3785 61.9987C79.1395 62.1979 78.6814 62.4967 78.2631 62.3572C77.6058 61.1223 77.078 59.8377 76.6896 58.5032L76.3311 57.4475C76.6398 57.0691 76.9087 56.6707 77.1378 56.2425C78.1735 57.9256 78.9602 59.748 79.4781 61.6601L79.4582 61.8792C79.4482 61.929 79.4183 61.9689 79.3785 61.9987ZM76.351 55.2666L75.5344 54.5097L75.1261 56.4118L75.4547 56.6309C75.8033 56.2126 76.112 55.7545 76.3709 55.2765H76.351V55.2666ZM54.1826 27.6009C54.1826 27.6009 54.1428 27.6308 54.1428 27.6507C54.1528 27.6308 54.1727 27.6109 54.1826 27.6009ZM54.2125 27.5412C54.2125 27.5412 54.1826 27.581 54.1727 27.5909C54.178 27.5856 54.1834 27.581 54.1883 27.5767C54.2019 27.565 54.2125 27.5557 54.2125 27.5412ZM52.1012 26.4556C51.8324 26.3162 51.7527 26.0971 51.7129 25.8282H51.7029C51.6929 25.7784 51.6929 25.7386 51.6929 25.6888C51.6232 24.9419 51.7427 24.195 52.151 23.5676C52.5394 22.98 53.0772 22.5119 53.625 22.0837C55.308 20.7691 57.3496 19.8131 59.4409 19.3649C57.4292 20.9484 55.8059 22.731 54.3022 24.7925C54.2125 24.9153 54.1218 25.0381 54.0311 25.1609L54.0309 25.1612C53.8495 25.4068 53.6681 25.6524 53.4955 25.8979C53.4707 25.9342 53.4438 25.9773 53.4147 26.024C53.2678 26.2592 53.0643 26.5851 52.7984 26.5851C52.5594 26.5851 52.3104 26.5652 52.1012 26.4556ZM68.8719 22.0937C67.1889 20.7691 65.1473 19.8131 63.056 19.3749C65.0677 20.9484 66.6909 22.731 68.1947 24.8025L69.0014 25.9079C69.0313 25.9491 69.0637 25.9987 69.0986 26.0521L69.0988 26.0524L69.0989 26.0525C69.2498 26.2836 69.4479 26.587 69.6985 26.5951C69.9375 26.5951 70.1865 26.5751 70.3956 26.4656C70.6645 26.3262 70.7442 26.0971 70.784 25.8382C70.784 25.8194 70.7863 25.7984 70.7886 25.7762C70.7912 25.7513 70.794 25.7251 70.794 25.6988C70.8637 24.9618 70.7442 24.2049 70.3359 23.5775C69.9475 22.99 69.4097 22.5219 68.862 22.0937H68.8719ZM27.9909 39.1133C31.2972 38.456 34.9123 37.739 38.2684 37.0817C38.368 37.5697 38.5373 38.0477 38.7664 38.5058C30.5702 43.067 21.677 43.6346 20.233 43.5948C19.3765 42.7583 18.4902 41.7524 18.0719 41.135L27.9909 39.1133ZM28.22 46.6223C29.7145 46.4985 31.0271 45.9016 32.3665 45.2925L32.5521 45.2081C33.1894 44.9243 33.8267 44.638 34.4641 44.3517C35.1015 44.0654 35.7389 43.779 36.3762 43.4952C36.9787 43.2264 37.5836 42.955 38.1885 42.6837L38.1935 42.6814L38.2029 42.6772L38.2042 42.6766C38.804 42.4076 39.4039 42.1385 40.0013 41.8719C40.2253 41.7723 40.4518 41.6703 40.6784 41.5682C40.905 41.4661 41.1316 41.364 41.3557 41.2644C40.7781 40.896 40.2702 40.4777 39.832 40.0196C37.7406 41.0354 33.1695 43.0969 27.9013 44.4214C26.3676 44.8098 23.8779 45.2679 22.414 45.3276C22.4257 45.3355 22.4375 45.3418 22.4487 45.3478C22.4659 45.357 22.4816 45.3654 22.4936 45.3774C24.1966 46.4131 26.2381 46.7816 28.21 46.6223H28.22ZM32.2433 36.4045L27.732 37.3207H27.722C27.2141 37.4354 26.7033 37.5471 26.1911 37.6591L26.1903 37.6592L26.1893 37.6595L26.1888 37.6596L26.1882 37.6597L26.1876 37.6598C25.7669 37.7518 25.3452 37.844 24.9236 37.9382C22.6231 38.456 15.134 40.1391 13.6402 39.9499C12.3655 39.7905 11.3298 39.0735 10.4932 38.1174L9.40772 36.8726C15.1141 36.5639 24.7443 35.5481 29.9528 32.2716C30.5105 34.2634 31.4367 35.5779 32.2433 36.4045ZM21.3085 28.8856C20.1931 29.503 17.0262 30.7778 9.92558 30.7778C8.07323 30.7778 6.03167 30.6881 3.8706 30.5089C3.91041 30.5537 3.94773 30.596 3.98505 30.6383C4.02242 30.6806 4.05979 30.723 4.09966 30.7678L7.89398 35.1198C12.6643 34.9207 23.7285 34.0941 29.0366 30.6981C26.2282 30.24 23.6389 29.6325 21.3185 28.8856H21.3085ZM25.9095 23.1294C26.0689 25.6291 27.2739 27.4814 28.4689 28.7263C24.346 27.9793 16.349 26.0274 12.3057 21.7351C16.9366 22.014 21.4579 22.5518 25.6805 23.0995L25.9095 23.1294ZM18.7491 27.9594C12.9331 25.6091 10.6426 22.8306 9.86582 21.5957L9.71649 21.5891L9.71639 21.5891H9.71633C9.06855 21.5603 8.29783 21.526 7.4757 21.526C4.45818 21.526 2.49628 22.004 1.47052 22.98C0.90287 23.5277 0.624023 24.2448 0.624023 25.1809C0.624023 26.4656 1.42073 27.6407 2.12781 28.5271C11.3597 29.4732 16.3291 28.6765 18.7391 27.9594H18.7491ZM52.9975 36.1555L43.4669 40.3383V40.3482C42.6404 39.9797 40.4893 38.8444 40.0511 36.7431C44.7616 35.8169 48.7152 35.0402 50.219 34.7514L50.8763 34.6219L52.7585 34.1239C52.898 34.7613 53.0772 35.2991 53.3262 35.7871C53.3561 35.8369 53.3859 35.8966 53.3859 35.8966L53.4059 35.9365L52.9975 36.1555ZM52.4 31.4351C49.253 31.6342 46.2355 31.7438 43.4072 31.7438C40.4096 31.7438 36.1173 31.4948 33.5579 31.3454C32.7214 31.2956 31.9645 31.2558 31.5661 31.2359C32.2533 34.2833 33.8965 35.558 34.5239 35.9365L52.4697 32.5803C52.4512 32.4071 52.4364 32.1146 52.4232 31.8511L52.4232 31.8509C52.4151 31.6904 52.4076 31.5406 52.4 31.4351ZM52.3502 29.6126C44.9707 30.0508 37.3921 29.8914 31.2375 29.1445C29.0366 27.2324 27.8614 25.2905 27.7419 23.3684C34.4023 24.2537 41.2413 25.5033 48.1677 26.7688C49.5784 27.0266 50.9928 27.285 52.41 27.5411C52.3801 27.9196 52.3502 28.5271 52.3502 29.6126ZM84.2285 37.0817C84.1289 37.5797 83.9695 38.0577 83.7305 38.5058C91.9266 43.057 100.82 43.6346 102.264 43.5948C103.13 42.7583 104.007 41.7425 104.425 41.135L94.506 39.1133L92.5652 38.7285C89.8128 38.1826 86.9394 37.6126 84.2285 37.0817ZM82.6518 40.0229L82.655 40.0196H82.645L82.6518 40.0229ZM81.1313 41.2644C81.7075 40.8968 82.2143 40.4797 82.6518 40.0229C84.7561 41.0498 89.3231 43.0983 94.5757 44.4214C96.1094 44.8098 98.609 45.2679 100.063 45.3276C100.051 45.3397 100.035 45.3481 100.018 45.3573C100.007 45.3633 99.9951 45.3696 99.9833 45.3774C98.2804 46.4131 96.2388 46.7816 94.267 46.6223C92.8157 46.5021 91.5361 45.9272 90.2369 45.3436L90.0686 45.268L89.9349 45.2081C89.2975 44.9243 88.6601 44.638 88.0228 44.3517C87.3854 44.0654 86.748 43.779 86.1107 43.4952C85.5084 43.2264 84.9035 42.9551 84.2987 42.6838L84.2937 42.6816C83.6902 42.4109 83.0867 42.1401 82.4857 41.8719C82.2617 41.7724 82.0352 41.6703 81.8087 41.5683C81.582 41.4662 81.3554 41.3641 81.1313 41.2644ZM90.2436 36.3946L94.755 37.3108C95.2232 37.4154 95.6889 37.5175 96.1547 37.6196C96.6201 37.7216 97.0855 37.8237 97.5534 37.9282L97.9943 38.0258L97.9946 38.0259C100.688 38.6227 107.437 40.1184 108.837 39.9399C110.121 39.7806 111.157 39.0635 111.984 38.1075L113.069 36.8626C107.363 36.5539 97.7326 35.5381 92.5242 32.2616C91.9665 34.2534 91.0403 35.568 90.2336 36.3946H90.2436ZM93.4603 30.6981C96.2687 30.24 98.858 29.6325 101.178 28.8856H101.188C102.304 29.503 105.481 30.7778 112.571 30.7778C114.424 30.7778 116.455 30.6881 118.626 30.5089C118.609 30.5288 118.591 30.5482 118.573 30.5673L118.549 30.5936C118.496 30.6512 118.444 30.7072 118.397 30.7678L114.603 35.1198C109.833 34.9207 98.7684 34.104 93.4603 30.6981ZM110.181 21.7351C105.56 22.024 101.029 22.5617 96.8065 23.0995L96.5774 23.1294C96.4181 25.6191 95.2131 27.4714 94.018 28.7263C98.131 27.9793 106.138 26.0274 110.181 21.7351ZM115.021 21.526C118.039 21.526 120.001 22.004 121.026 22.98H121.016C121.594 23.5277 121.863 24.2448 121.863 25.1809C121.863 26.4656 121.076 27.6407 120.359 28.5271C111.117 29.4732 106.158 28.6765 103.748 27.9594C109.564 25.6091 111.854 22.8306 112.631 21.5957L112.806 21.5881L112.806 21.5881L112.806 21.588L112.807 21.588C113.457 21.5595 114.218 21.526 115.021 21.526ZM82.4359 36.7332L82.4339 36.7328L82.4359 36.7232V36.7332ZM82.4339 36.7328C79.9735 36.249 77.7197 35.8087 75.9137 35.456L75.9114 35.4555C74.2615 35.1332 72.9856 34.884 72.2679 34.7414L71.6106 34.6119L69.7284 34.114C69.589 34.7514 69.4097 35.2891 69.1607 35.7771C69.1476 35.7989 69.1403 35.815 69.1336 35.8296C69.1251 35.8482 69.1178 35.8643 69.101 35.8867L69.0811 35.9265L69.4894 36.1456L79.02 40.3283C79.8453 39.9604 81.9912 38.8379 82.4339 36.7328ZM88.929 31.3454C89.7656 31.2956 90.5224 31.2558 90.9208 31.2359C90.2336 34.2932 88.5904 35.558 87.963 35.9365L70.0172 32.5803C70.0357 32.4016 70.0504 32.1121 70.0636 31.8514C70.0717 31.6909 70.0793 31.5413 70.0869 31.4351C73.2339 31.6442 76.2514 31.7438 79.0797 31.7438C82.0773 31.7438 86.3696 31.4948 88.929 31.3454ZM70.1467 29.6126C77.5262 30.0607 85.1048 29.9014 91.2594 29.1445C93.4703 27.2324 94.6454 25.2905 94.755 23.3684C87.8783 24.2824 80.8112 25.5775 73.6541 26.889C72.4674 27.1065 71.2782 27.3244 70.0869 27.5411C70.1168 27.9196 70.1467 28.5171 70.1467 29.6126ZM62.8468 46.7816C62.3788 46.9808 61.7613 47.18 61.2435 47.1501H61.2335C60.7156 47.18 60.1082 46.9808 59.6301 46.7816C59.1421 46.5824 58.6741 46.2936 58.2658 45.955C57.0309 44.9293 56.2142 43.4554 55.5868 42.0014C55.2179 41.1364 54.9425 40.2429 54.667 39.3496C54.5112 38.8441 54.3554 38.3388 54.1826 37.8386C54.1654 37.7911 54.1439 37.7412 54.1217 37.6898C54.0417 37.5042 53.9531 37.2988 54.0233 37.1116C54.1114 36.8879 54.3704 36.7564 54.6084 36.6356C54.72 36.579 54.827 36.5247 54.9096 36.4643C54.9594 36.4344 55.0192 36.3946 55.0391 36.3348C55.0789 36.2651 55.059 36.1854 55.0391 36.1157C54.4416 33.7256 53.8839 31.4251 53.9138 28.9453C53.9138 28.3777 53.9636 27.8798 54.3022 27.4216C55.3976 25.9179 56.513 24.434 57.7877 23.0796C57.8474 23.0164 57.9092 22.9502 57.9732 22.8818C58.8064 21.9906 59.9949 20.7193 61.2435 20.7193C62.4768 20.7378 63.6591 21.9896 64.4916 22.8711C64.5599 22.9434 64.6258 23.0132 64.6892 23.0796C65.964 24.434 67.0793 25.9278 68.1748 27.4216C68.5134 27.8798 68.5632 28.3777 68.5632 28.9453C68.593 31.417 68.0291 33.7105 67.4436 36.0922L67.4379 36.1157C67.4364 36.126 67.4347 36.1365 67.433 36.1472C67.4231 36.2088 67.4124 36.2754 67.4379 36.3348C67.4677 36.3846 67.5175 36.4244 67.5673 36.4643C67.65 36.5247 67.757 36.579 67.8686 36.6356C68.1066 36.7564 68.3655 36.8879 68.4537 37.1116C68.5238 37.2988 68.4353 37.5042 68.3553 37.6898C68.3331 37.7412 68.3116 37.7911 68.2943 37.8386C68.1216 38.3388 67.9658 38.8441 67.81 39.3495C67.5345 40.2429 67.259 41.1363 66.8901 42.0014C66.2627 43.4653 65.4561 44.9293 64.2112 45.955C63.8029 46.2936 63.3448 46.5824 62.8468 46.7816Z" fill="black"/>
</svg>
