<svg width="155" height="196" viewBox="0 0 155 196" fill="none" xmlns="http://www.w3.org/2000/svg">
<path fill-rule="evenodd" clip-rule="evenodd" d="M96.6809 1.67947C97.9711 1.06832 99.3821 0.774054 100.808 0.82687C101.729 0.962683 102.581 1.37767 103.245 2.02655C103.207 1.84547 103.14 1.67193 103.041 1.51348L103.037 1.50771C102.954 1.40056 101.766 -0.129047 98.8615 0.426976C96.3036 0.924957 92.0633 2.93197 86.925 6.10094C87.0985 6.25939 87.2494 6.42539 87.3853 6.61402C89.5583 5.41433 95.3982 2.21518 96.6734 1.67947H96.6809ZM66.1227 6.55087L66.1226 6.55082L66.1222 6.55063C64.0256 5.42775 58.47 2.45233 57.0688 1.91337H57.0763C55.8087 1.2494 54.3978 0.932502 52.9717 0.992864C52.0059 1.14377 51.1156 1.59648 50.4139 2.268C50.4516 2.07937 50.5195 1.89828 50.6176 1.73229C50.6176 1.73229 51.8098 0.0723527 54.7977 0.645786C57.4158 1.15886 62.0938 3.30923 66.9227 6.20658C66.7417 6.35748 66.5757 6.52347 66.4248 6.70456H66.4097L66.1227 6.55087ZM71.8045 11.4278L72.6571 11.1487C71.5857 9.52645 70.1445 8.18341 68.4544 7.22517C68.1073 7.32326 67.8055 7.54962 67.6245 7.86651V7.94197H67.6471C69.2391 8.8323 70.6501 10.0169 71.7969 11.4278H71.8045ZM50.3158 11.5108L51.6211 13.2387C51.7419 13.3971 51.7871 13.6084 51.7343 13.8046L51.674 14.0686H52.0361C52.2097 14.0913 52.3757 14.1818 52.4813 14.3176L52.8133 14.7628C52.934 14.9212 52.9717 15.125 52.9265 15.3211V15.5022H53.1981C53.3716 15.5249 53.5376 15.6154 53.6432 15.7512L54.5109 16.9056C54.6317 17.0641 54.6769 17.2753 54.6241 17.4715C55.7031 18.3996 56.9028 19.1843 58.1854 19.803C58.2684 19.5464 58.3665 19.2673 58.4872 18.9806C57.6002 18.0183 56.5783 17.1909 55.4663 16.5057L55.4541 16.4982C55.2126 16.5661 54.9486 16.4982 54.775 16.302L54.1186 15.5475C53.9752 15.3815 53.9224 15.1627 53.9752 14.9514L53.9375 14.7477H53.5225C53.349 14.7402 53.183 14.6572 53.0698 14.5289L52.7756 14.1818C52.6322 14.0158 52.5869 13.7895 52.6473 13.5782C52.6473 13.5038 52.6701 13.4358 52.6901 13.3766C52.7005 13.3458 52.71 13.3173 52.7152 13.2915H52.2398C52.0588 13.2839 51.8928 13.2009 51.772 13.0727L50.2253 11.2769C50.18 11.2241 50.1423 11.1638 50.1121 11.0958H49.9612L49.4029 11.1939L49.8707 11.2543C50.0442 11.2769 50.2102 11.3675 50.3158 11.5033V11.5108ZM101.676 13.299H102.151V13.3066C102.332 13.299 102.498 13.2236 102.619 13.0878L104.166 11.292C104.211 11.2392 104.249 11.1788 104.279 11.1109H104.43L104.988 11.209L104.52 11.2694C104.347 11.2845 104.181 11.375 104.075 11.5184L102.77 13.2462C102.649 13.4047 102.604 13.6159 102.657 13.8121L102.717 14.0762H102.355C102.181 14.0913 102.015 14.1818 101.91 14.3252L101.578 14.7703C101.457 14.9288 101.419 15.1325 101.465 15.3287V15.5098H101.193C101.019 15.5249 100.853 15.6154 100.748 15.7588L99.8801 16.9132C99.7593 17.0716 99.7141 17.2829 99.7669 17.4791C98.6804 18.4071 97.4882 19.1918 96.2056 19.8105C96.1226 19.554 96.0245 19.2748 95.9037 18.9881C96.7941 18.0223 97.8127 17.1923 98.9369 16.5057C99.1859 16.5736 99.45 16.5057 99.616 16.3096L100.272 15.555C100.416 15.389 100.469 15.1702 100.416 14.959L100.453 14.7553H100.868C101.042 14.7477 101.208 14.6647 101.321 14.5364L101.615 14.1894C101.751 14.0234 101.804 13.797 101.744 13.5858C101.744 13.491 101.712 13.4015 101.688 13.3351L101.688 13.335L101.688 13.3349L101.688 13.3348L101.688 13.3348L101.688 13.3347C101.684 13.3219 101.679 13.31 101.676 13.299ZM95.0587 20.5877C94.9983 20.384 94.9078 20.1048 94.7946 19.8105C93.5648 20.3462 90.7504 21.7345 88.6604 22.9116L88.6748 23.0387C88.7236 23.4658 88.7736 23.9032 88.7736 24.3904V24.7224C90.3203 23.9981 93.5874 22.3155 95.0587 20.5877ZM9.76055 118.147L25.1301 96.311L21.4027 88.1773L0.879883 117.332L10.5075 138.164L35.0519 103.298L31.3246 95.1641L11.9034 122.749L9.76055 118.147ZM25.6129 137.198L37.5796 105.282H37.5871L48.1428 103.517L54.9335 111.786L49.0935 127.352L36.2139 129.472L32.9921 138.051L37.6626 137.289L39.2018 133.184L47.426 131.781L42.9517 143.702L32.4036 145.468L25.6129 137.198ZM39.1188 121.708L43.7893 120.946L47.5468 110.934L42.8763 111.696L39.1188 121.708ZM57.6648 112.45L55.854 128.174L66.3493 135.923L65.4816 143.483L61.1356 145.355L62.0712 137.183L54.4355 140.541L53.7715 146.305L62.3579 152.688L72.1666 148.418L73.985 132.633L63.4897 124.877L64.3498 117.392L68.6959 115.521L67.7678 123.617L75.4035 120.267L76.06 114.563L67.4735 108.187L57.6648 112.45ZM87.3977 108.053L87.4003 108.051H87.3928L87.3977 108.053ZM87.3977 108.053L78.8969 114.548L83.8692 153.247L90.4788 148.161L89.3168 139.137L99.7065 131.245L97.2619 112.186L87.3977 108.053ZM86.5779 117.732L88.268 130.906L92.0406 128.046L90.3505 114.872L86.5779 117.732ZM106.671 103.132L99.9932 111.492L114.186 147.837L119.369 141.303L116.449 133.818L119.414 130.128L124.719 143.725L129.902 137.191L117.241 104.762L106.671 103.139V103.132ZM113.431 126.092L108.217 112.729L111.183 109.04L116.396 122.402L113.431 126.092ZM132.354 108.761L145.34 107.493L154.56 120.44L150.123 130.181L139.477 131.185L136.104 126.454L139.537 118.848L144.306 125.549L146.283 121.248L141.876 115.053L128.884 116.313L119.701 103.419L124.138 93.6853L134.792 92.6742L138.119 97.3522L134.686 104.958L129.955 98.318L127.978 102.619L132.354 108.761ZM65.6099 24.3904V24.7224C64.0631 23.9905 60.8036 22.3155 59.3248 20.5877C59.3851 20.384 59.4757 20.1048 59.5888 19.8105C60.8187 20.3462 63.6331 21.727 65.7231 22.9116L65.7086 23.0387C65.6598 23.4658 65.6099 23.9032 65.6099 24.3904ZM75.5167 88.1924C76.06 88.8111 76.6485 89.3845 77.2823 89.9051C77.3879 89.973 77.5237 89.973 77.6293 89.9051V89.9278C78.2782 89.3996 78.8743 88.8186 79.4326 88.1924C78.1273 88.298 76.822 88.298 75.5242 88.1924H75.5167ZM57.3027 49.7648L57.4536 49.4932H57.446C59.5888 47.6296 61.9957 46.0903 64.5762 44.9133C64.5083 45.5999 64.5083 46.3016 64.5762 46.9958L63.3086 47.9615C61.7769 49.2367 60.1095 50.3534 58.3439 51.289C57.7403 51.1154 57.4234 50.3986 57.3027 49.961C57.28 49.9007 57.28 49.8252 57.3027 49.7648ZM49.0784 57.1817C48.9954 57.2949 48.8822 57.3855 48.754 57.4458L46.4225 58.4418C46.2263 58.5248 46 58.5248 45.8038 58.4418L45.4794 58.3211L45.419 58.5474C45.3511 58.7813 45.1851 58.97 44.9588 59.068L44.325 59.3397C44.1212 59.4227 43.8949 59.4227 43.6912 59.3397L43.2837 59.1661L43.1932 59.4906C43.1328 59.732 42.9593 59.9282 42.7329 60.0263L40.2506 61.0675C40.0469 61.1505 39.8205 61.1505 39.6168 61.0675H39.5036L39.911 61.6787C39.9789 61.6259 40.0619 61.5806 40.1449 61.5579L42.8914 60.5922C43.0951 60.5092 43.3215 60.5092 43.5252 60.5922L44.0609 60.8261C44.0684 60.7959 44.0818 60.7623 44.0964 60.726C44.1254 60.6534 44.159 60.5695 44.159 60.479C44.2269 60.2225 44.4155 60.0112 44.6645 59.9206L45.1851 59.732C45.3813 59.649 45.6076 59.649 45.8038 59.732L46.249 59.9282L46.3244 59.6641C46.3923 59.4076 46.581 59.2038 46.83 59.1209L48.9652 58.3663C49.1991 58.2833 49.4557 58.3135 49.6594 58.4418C49.7801 58.5248 49.9159 58.5776 50.0593 58.6002C52.5039 56.7064 54.7826 54.6164 56.8877 52.3528C56.4425 51.9529 56.0954 51.4474 55.8842 50.8891C53.4471 52.8055 51.1684 54.9182 49.0633 57.1968L49.0784 57.1817ZM66.3191 44.37L67.8961 44.1211L66.8548 46.7166H66.2814C66.206 45.9394 66.206 45.1472 66.2814 44.37H66.3191ZM70.8236 13.2915C69.5334 13.6914 68.379 14.4534 67.4962 15.4796V15.555C68.7336 15.0344 69.8805 14.3252 70.9066 13.4575C70.8897 13.4125 70.8687 13.3717 70.8465 13.3289L70.8465 13.3287C70.8389 13.3141 70.8313 13.2993 70.8236 13.2839V13.2915ZM80.4579 81.0493C80.6444 80.8013 80.9267 80.4258 81.2208 80.4058L81.2058 80.4133H81.3265C81.3265 80.4133 82.5714 80.1643 84.1861 79.8022C83.8994 80.3228 83.6051 80.8359 83.2807 81.3942C83.0694 81.7262 81.1605 84.699 80.919 85.0083V84.9857C79.7345 85.1668 78.5423 85.2649 77.3426 85.2724C76.2184 85.2649 75.0942 85.197 73.9775 85.0611C73.6983 84.7895 73.4342 84.4953 73.2079 84.1784C72.6646 83.3886 72.0987 82.4832 71.5102 81.4621C71.1912 80.8834 70.9013 80.3119 70.6406 79.798L70.6406 79.7979L70.6274 79.772L70.7452 79.7959C71.5956 79.969 72.4401 80.1408 73.2984 80.285C73.3991 80.3005 73.5103 80.309 73.624 80.3176C73.8427 80.3341 74.0704 80.3514 74.2491 80.4209C74.5585 80.5377 74.7113 80.9553 74.8216 81.2569L74.8219 81.2578C74.8325 81.2868 74.8428 81.3148 74.8527 81.3414C74.981 81.6809 75.1545 81.9978 75.3733 82.2921C75.7583 82.8053 76.252 83.234 76.7356 83.6537L76.7356 83.6538C76.7923 83.703 76.8488 83.752 76.905 83.8011C77.1389 84.0048 77.4634 84.0576 77.7501 83.9369C78.4291 83.6502 79.0327 83.1824 79.4779 82.5939C79.6504 82.3653 79.7908 82.1179 79.9313 81.8704L79.9313 81.8704L79.9314 81.8703L79.9314 81.8702L79.9315 81.8702L79.9315 81.8701L79.9316 81.87L79.9316 81.87L79.9316 81.8699L79.9317 81.8698L79.9317 81.8698L79.9318 81.8697L79.9318 81.8696L79.9319 81.8695L79.9319 81.8695L79.932 81.8694L79.932 81.8693L79.9321 81.8693L79.9321 81.8692L79.9322 81.8691L79.9322 81.8691L79.9322 81.869L79.9323 81.8689L79.9323 81.8689L79.9324 81.8688L79.9324 81.8687L79.9325 81.8687L79.9325 81.8686L79.9326 81.8685L79.9326 81.8684L79.9327 81.8684L79.9327 81.8683L79.9327 81.8682L79.9328 81.8682L79.9328 81.8681L79.9329 81.868L79.9329 81.868L79.933 81.8679L79.933 81.8678L79.9331 81.8678L79.9331 81.8677L79.9332 81.8676L79.9332 81.8676L79.9333 81.8675L79.9333 81.8674L79.9333 81.8673L79.9334 81.8673L79.9334 81.8672L79.9335 81.8671L79.9335 81.8671L79.9336 81.867L79.9336 81.8669L79.9337 81.8669L79.9337 81.8668L79.9338 81.8667L79.9338 81.8667L79.9338 81.8666L79.9339 81.8665L79.9339 81.8665L79.934 81.8664L79.934 81.8663L79.9341 81.8662L79.9341 81.8662L79.9342 81.8661L79.9342 81.866L79.9343 81.866L79.9343 81.8659L79.9343 81.8658L79.9344 81.8658C80.0759 81.6168 80.2173 81.3678 80.3909 81.1377C80.4115 81.111 80.4339 81.0812 80.4579 81.0493ZM80.9115 71.2384C80.3833 71.3063 79.9306 71.6685 79.7721 72.1815C79.3572 73.4718 78.6102 74.6413 77.6142 75.5618C77.3049 75.8409 76.8446 75.8409 76.5353 75.5618C75.5318 74.6714 74.815 73.5019 74.4754 72.2117C74.4151 71.8495 74.2114 71.5327 73.9171 71.3214C73.2003 71.2308 72.227 71.0498 71.2008 70.8234C71.3216 70.8536 71.4347 70.8913 71.5479 70.9366C71.3593 70.8611 71.148 70.8234 70.9368 70.8083H70.9519C69.6239 70.5141 68.2356 70.1745 67.1415 69.8878C67.5037 71.7666 68.0092 73.6151 68.6581 75.4109C71.3895 76.1428 74.1887 76.5351 77.0182 76.5879C80.2324 76.4823 83.4089 75.8938 86.4421 74.8374H86.5024C86.8431 73.8036 87.2341 72.1205 87.565 70.6958L87.5651 70.6956L87.5652 70.6951L87.5653 70.6947L87.5658 70.6926C87.6597 70.2884 87.7487 69.9051 87.8304 69.5634C85.0613 70.3858 81.1982 71.2384 81.0096 71.2384H80.919H80.9115ZM77.1012 17.894C74.2717 18.0072 71.5253 18.89 69.1561 20.4519V20.4443C68.0017 19.9011 67.2774 18.7316 67.2924 17.4564C68.7109 16.9056 72.4005 15.1401 72.6042 13.8272C72.6495 13.5254 72.6193 13.216 72.5137 12.9293C73.985 12.4238 75.5318 12.1974 77.0861 12.2503C78.4518 12.2201 79.825 12.3559 81.1605 12.6577C81.002 12.9972 80.9492 13.3745 81.0096 13.7442C81.2661 15.0269 84.7218 16.7472 86.3666 17.3885C86.3666 18.4901 86.0045 19.6747 84.8953 19.9463C84.8199 19.9765 84.7444 20.0067 84.6765 20.052C82.3903 18.6712 79.7721 17.9242 77.1012 17.894ZM87.7097 43.9928L86.095 43.6608L87.2268 46.4827H87.8002C87.8606 45.6527 87.8304 44.8228 87.7097 44.0003V43.9928ZM86.012 7.66279L85.9215 7.72316V7.71561C84.3596 8.59839 82.9638 9.76035 81.8094 11.1411C81.5151 11.0581 81.2133 10.9827 80.9039 10.9148C82.0885 9.37555 83.5372 8.06269 85.1821 7.02145C85.5291 7.12709 85.8234 7.35344 86.012 7.66279ZM81.085 51.04C82.8657 50.6627 84.6162 50.1798 86.3365 49.5838L86.344 49.5913L87.672 54.4806C84.7671 55.3558 81.7792 55.9368 78.7536 56.2084C79.991 55.3483 81.4849 54.0731 81.583 52.9791C81.6207 52.2925 81.4472 51.621 81.085 51.04ZM82.8279 13.0123C82.745 13.1255 82.677 13.2538 82.6242 13.382C83.6881 14.2799 84.8802 15.0118 86.1629 15.555V15.2457C86.1478 15.0042 85.4838 13.8272 82.8279 13.0123ZM73.0343 53.9675C73.7058 54.9182 74.5886 55.7029 75.6148 56.2537C72.7778 56.0801 69.971 55.5369 67.2698 54.639C67.6491 53.1895 68.1987 51.1928 68.5473 49.9261L68.5476 49.9251L68.6581 49.5234C70.0464 49.9837 71.8724 50.5118 73.3889 50.9494H73.404L72.8834 51.8171V51.9152C72.5967 52.5867 72.6495 53.3488 73.0343 53.9675ZM82.662 60.4488C82.247 62.9764 80.7606 65.2023 78.5876 66.5604C81.9829 66.2812 85.3179 65.5493 88.5246 64.3874V64.4402C88.6151 63.0745 88.5246 60.5393 88.4717 59.0907C86.2987 59.6867 83.7409 60.23 82.662 60.4563V60.4488ZM90.4633 45.4992C92.4694 46.6705 95.9559 48.7064 96.5225 49.2141L96.6583 49.463C96.696 49.5159 96.7111 49.5913 96.696 49.6592H96.6734C96.5375 50.0968 96.2357 50.8287 95.617 50.9872C94.689 50.8514 90.8862 48.0898 89.3244 46.9505C89.4224 46.2639 89.4451 45.5622 89.3847 44.868L90.3128 45.4113L90.4633 45.4992ZM113.801 60.6827L111.319 59.6415C111.092 59.5434 110.919 59.3472 110.858 59.1058L110.768 58.7964L110.307 58.9171C110.104 59.0001 109.877 59.0001 109.674 58.9171L109.04 58.6455C108.814 58.5474 108.648 58.3588 108.58 58.1249L108.519 57.8985L108.195 58.0193C107.999 58.1023 107.772 58.1023 107.576 58.0193L105.245 57.0233C105.116 56.9629 105.003 56.8724 104.92 56.7592C102.808 54.473 100.514 52.3528 98.0617 50.4288C97.8504 50.9947 97.5033 51.4927 97.0582 51.8926C99.1633 54.141 101.449 56.2235 103.887 58.1023C104.03 58.0796 104.173 58.0268 104.294 57.9438C104.505 57.8155 104.762 57.7854 104.988 57.8684L107.123 58.6229C107.372 58.7134 107.561 58.9171 107.629 59.1661L107.704 59.4378L108.15 59.2416C108.346 59.1586 108.572 59.1586 108.768 59.2416L109.289 59.4302C109.538 59.5208 109.734 59.732 109.794 59.9886C109.81 60.0517 109.83 60.1082 109.848 60.1586C109.872 60.2288 109.892 60.2873 109.892 60.3356L110.428 60.1017C110.632 60.0187 110.858 60.0187 111.062 60.1017L113.808 61.0675C113.891 61.0977 113.974 61.1354 114.042 61.1882L114.487 60.6676H114.412C114.208 60.7506 113.982 60.7506 113.778 60.6676L113.801 60.6827ZM66.4323 59.2416C68.2809 59.815 70.1596 60.2677 72.0686 60.6073H72.0761C72.5439 61.988 73.902 65.4135 76.2109 66.6585C72.8985 66.4623 69.6164 65.8662 66.4474 64.8929C66.3342 63.1122 66.3342 60.645 66.4323 59.2642V59.2416ZM70.8463 14.1215H70.8236V14.129C70.8236 14.129 70.8387 14.129 70.8463 14.1215ZM59.5134 70.4763C59.7096 70.5141 59.9057 70.5442 60.1095 70.5442L60.1019 70.5141C60.3207 70.5141 60.5395 70.4914 60.7508 70.4462C61.4223 74.3093 61.8977 78.195 62.1617 82.1034C62.0712 82.2242 61.9505 82.3223 61.8147 82.3902C61.626 82.4882 61.4902 82.6769 61.4676 82.8881L61.3167 84.1557C61.2865 84.3594 61.3619 84.5632 61.5129 84.7065L61.7543 84.9329L61.4072 85.2045C61.2563 85.3101 61.1582 85.4837 61.1356 85.6648L60.9771 87.0229C60.9545 87.2342 61.03 87.4379 61.1884 87.5812L61.4676 87.8529C61.3393 87.9585 61.2035 88.0641 61.0677 88.1547C60.9092 88.2603 60.8112 88.4263 60.7885 88.6149L60.6527 89.8523C60.6301 90.0636 60.7055 90.2673 60.864 90.4107L61.1431 90.6898C61.0149 90.7955 60.8791 90.9011 60.7432 90.9917C60.5848 91.0973 60.4867 91.2633 60.4641 91.4519L60.283 93.0364C60.2754 93.0968 60.2754 93.1571 60.283 93.2175H59.868L59.9812 93.1345C60.1245 93.0213 60.2075 92.8553 60.2226 92.6742L60.3207 91.301C60.3358 91.1048 60.2679 90.9162 60.1245 90.7804L59.8831 90.554L60.1698 90.3126C60.3132 90.207 60.4113 90.056 60.4414 89.8825L60.5546 88.3886C60.5697 88.1999 60.5018 88.0189 60.366 87.883L60.2453 87.7623L60.4037 87.6265C60.5471 87.5133 60.6301 87.3473 60.6452 87.1663L60.7432 85.4007C60.7583 85.2121 60.6904 85.031 60.5546 84.8951L60.6376 84.8272C60.7734 84.7141 60.8564 84.5481 60.864 84.367L60.9998 82.3751C61.0149 82.2921 61.0149 82.2015 60.9998 82.1185C60.2981 80.1266 59.6417 73.1021 59.5134 70.4763ZM60.6074 69.1182C60.366 68.3184 59.7096 66.6811 58.9852 65.0061C58.9184 65.3137 58.8534 65.6155 58.7897 65.9117L58.7895 65.9126L58.7892 65.914L58.7889 65.9155C58.6731 66.4535 58.5613 66.9728 58.4495 67.4734L59.2569 69.0201C59.6794 69.2238 60.1623 69.2616 60.615 69.1182H60.6074ZM59.6718 63.0896L59.6492 62.8708V62.8633C60.1774 60.9091 60.9772 59.0379 62.041 57.3176C62.2749 57.7552 62.5541 58.1702 62.871 58.555L62.5088 59.6339C62.1089 60.9996 61.5657 62.3275 60.8942 63.58C60.4641 63.7234 59.9963 63.4216 59.7473 63.2103C59.7096 63.1802 59.6794 63.1349 59.6718 63.0896ZM62.8559 56.3065L62.8333 56.3216C63.0973 56.812 63.4067 57.2798 63.7689 57.7099L64.1084 57.4836L63.6934 55.5369L62.8559 56.3141V56.3065ZM92.2368 82.1261V82.1336L92.2292 82.1412V82.1185C92.2292 82.1199 92.2295 82.1209 92.2298 82.1218C92.2302 82.1227 92.2307 82.1233 92.2312 82.1238C92.2334 82.1261 92.2368 82.1261 92.2368 82.1261ZM92.2368 82.1336C92.5009 78.2252 92.9687 74.3319 93.6477 70.4763C93.859 70.5216 94.0778 70.5442 94.2966 70.5442C94.4928 70.5442 94.6965 70.5216 94.8927 70.4763L94.8851 70.5065C94.7569 73.1322 94.0929 80.1568 93.3988 82.1487C93.3837 82.2317 93.3837 82.3223 93.3988 82.4053L93.5346 84.3972C93.5421 84.5783 93.6251 84.7443 93.7609 84.8574L93.8439 84.9253C93.7081 85.0536 93.6402 85.2422 93.6553 85.4309L93.7534 87.1964C93.7685 87.3775 93.8515 87.5435 93.9948 87.6567L94.1533 87.7925L94.0325 87.9132C93.8967 88.0415 93.8288 88.2301 93.8439 88.4188L93.9571 89.9127C93.9873 90.0862 94.0854 90.2447 94.2287 90.3428L94.5154 90.5842L94.274 90.8106C94.1382 90.9464 94.0627 91.135 94.0778 91.3312L94.1759 92.7044C94.191 92.8855 94.274 93.0515 94.4174 93.1647L94.5305 93.2477H94.1155C94.1231 93.1873 94.1231 93.1269 94.1155 93.0666L93.9345 91.4821C93.9118 91.2935 93.8137 91.1275 93.6553 91.0218L93.6551 91.0217L93.6548 91.0215L93.6546 91.0213L93.6544 91.0211L93.6541 91.0209L93.6539 91.0207L93.6537 91.0206C93.5184 90.9229 93.3831 90.8252 93.2554 90.72L93.5346 90.4409C93.693 90.2975 93.7685 90.0938 93.7458 89.8825L93.61 88.6451C93.5874 88.4565 93.4893 88.2905 93.3308 88.1849C93.195 88.0868 93.0592 87.9887 92.9309 87.883L93.2101 87.6114C93.3686 87.4681 93.444 87.2643 93.4214 87.0531L93.2629 85.6949C93.2403 85.5063 93.1422 85.3403 92.9913 85.2347L92.6442 84.9631L92.8857 84.7367C93.029 84.5934 93.1045 84.3896 93.0818 84.1859L92.9309 82.9183C92.9083 82.7071 92.7725 82.5184 92.5839 82.4203C92.4481 82.3524 92.3273 82.2543 92.2368 82.1336ZM95.1568 69.0201C94.7342 69.2238 94.2438 69.2616 93.7986 69.1182H93.8062C94.0476 68.326 94.7041 66.6811 95.4284 65.0061C95.6095 65.8738 95.7906 66.6962 95.9641 67.4734L95.1568 69.0201ZM94.2589 63.5801C94.689 63.7159 95.1568 63.4141 95.4058 63.2103C95.4435 63.1802 95.4737 63.1424 95.4812 63.0896L95.5039 62.8708C94.9757 60.9166 94.1684 59.0454 93.112 57.3251C92.8781 57.7627 92.599 58.1777 92.2821 58.5625L92.6442 59.6415C93.0441 61.0072 93.5874 62.3276 94.2589 63.5876V63.5801ZM91.4672 55.5294L92.3047 56.3065V56.299L92.3273 56.3141C92.0632 56.8045 91.7463 57.2723 91.3917 57.7024L91.0522 57.476L91.4672 55.5294ZM69.5862 27.9668C69.5862 27.9668 69.5485 27.997 69.5485 28.0197C69.5519 28.0162 69.555 28.0124 69.5578 28.0083C69.5611 28.0036 69.5641 27.9985 69.5672 27.9935L69.5673 27.9933C69.573 27.9838 69.5786 27.9744 69.5862 27.9668ZM69.5862 27.9593C69.6013 27.9442 69.6239 27.9065 69.6239 27.9065C69.6239 27.9247 69.6093 27.938 69.5957 27.9504L69.5915 27.9542L69.5862 27.9593ZM67.0586 26.1485C67.0963 26.4201 67.1793 26.6464 67.4585 26.7973C67.6773 26.9105 67.9338 26.9332 68.1753 26.9256C68.4432 26.9256 68.6493 26.6015 68.8022 26.3611C68.8345 26.3104 68.8644 26.2634 68.892 26.2239C69.0515 25.998 69.2136 25.7772 69.3753 25.5571L69.3759 25.5562C69.4893 25.4017 69.6026 25.2476 69.7145 25.0921C71.2537 22.9795 72.9212 21.1536 74.9734 19.5313C72.8306 19.9916 70.7331 20.9649 69.0128 22.3231C68.4544 22.7607 67.9036 23.2436 67.5037 23.8396C67.0812 24.481 66.968 25.2506 67.0359 26.0127C67.0359 26.0579 67.0435 26.1032 67.051 26.1485H67.0586ZM78.6781 19.5313C80.8209 19.9916 82.9185 20.9725 84.6388 22.3231H84.6312C85.1971 22.7607 85.7479 23.2436 86.1403 23.8396C86.5628 24.481 86.676 25.2581 86.6081 26.0126C86.6005 26.0579 86.593 26.1032 86.593 26.1485C86.5553 26.4201 86.4723 26.654 86.1931 26.7973C85.9743 26.9105 85.7253 26.9256 85.4763 26.9256C85.2072 26.9194 85.0003 26.5964 84.8472 26.3572L84.8471 26.3571L84.8465 26.3562L84.8205 26.3156L84.8018 26.2868L84.7818 26.2565C84.7742 26.2452 84.7668 26.2343 84.7595 26.2239C84.6237 26.0353 84.486 25.8467 84.3483 25.658C84.2106 25.4694 84.0729 25.2808 83.9371 25.0921C82.4054 22.9719 80.7304 21.146 78.6781 19.5313ZM53.2886 37.685C52.3577 37.8688 51.408 38.0558 50.4505 38.2444L50.4497 38.2445L50.4392 38.2466L50.4367 38.2471L50.4362 38.2472C47.8596 38.7547 45.2276 39.2731 42.7556 39.7675L32.5922 41.8349C33.0223 42.4611 33.9277 43.4948 34.8105 44.355C36.2894 44.3927 45.3964 43.8117 53.7942 39.1412C53.5602 38.6734 53.3867 38.183 53.2886 37.6775V37.685ZM47.1082 46.1493C45.7782 46.7447 44.4712 47.3297 42.9895 47.4485V47.456C40.9674 47.622 38.8774 47.2448 37.1344 46.1809L37.1172 46.1691C37.0975 46.1555 37.0745 46.1396 37.0514 46.1281C38.5454 46.0677 41.0956 45.5924 42.665 45.2C48.0598 43.8494 52.7378 41.7443 54.8882 40.6956C55.3334 41.1634 55.854 41.5859 56.4501 41.9707C56.1732 42.0912 55.8991 42.2144 55.626 42.3371C55.4376 42.4218 55.2496 42.5062 55.0617 42.5894C54.443 42.8648 53.8243 43.1421 53.2056 43.4194C52.5869 43.6966 51.9682 43.9739 51.3495 44.2493C50.6968 44.5436 50.0422 44.836 49.3876 45.1284L49.3864 45.129L49.3852 45.1295L49.384 45.1301L49.3827 45.1306L49.3815 45.1312L49.3803 45.1317C48.7282 45.423 48.0762 45.7142 47.426 46.0074C47.3207 46.0542 47.2156 46.1013 47.1106 46.1483L47.1082 46.1493ZM42.4915 37.9189L47.1167 36.9758C46.2943 36.1307 45.3436 34.7877 44.7701 32.7429C39.4357 36.1005 29.5666 37.1418 23.7191 37.4587L24.8282 38.7338C25.6809 39.7147 26.7447 40.4466 28.0576 40.605C29.5585 40.7972 36.9573 39.1419 39.4759 38.5784L39.4761 38.5783L39.4762 38.5783L39.4763 38.5783L39.6243 38.5452L39.6258 38.5449C40.5835 38.3337 41.5413 38.1225 42.4915 37.9114V37.9189ZM24.2548 31.2264C31.5208 31.2264 34.7728 29.921 35.9121 29.2873H35.9196C38.2964 30.0569 40.9523 30.6756 43.827 31.1434C38.3869 34.6292 27.0541 35.4743 22.1648 35.678L18.279 31.2113C18.2413 31.166 18.2017 31.1226 18.1621 31.0792C18.1225 31.0359 18.0829 30.9925 18.0451 30.9472C20.271 31.1358 22.3534 31.2264 24.2548 31.2264ZM43.246 29.1137C42.0237 27.8386 40.7863 25.9372 40.6203 23.3869L40.3939 23.3567C36.0705 22.7984 31.4303 22.2476 26.6919 21.9533C30.8342 26.3522 39.0283 28.3441 43.246 29.1137ZM24.1794 21.8175C24.9791 23.0776 27.3182 25.9296 33.2788 28.3366V28.3441C30.8116 29.0835 25.7261 29.8984 16.2645 28.9251C15.5326 28.0121 14.7177 26.8124 14.7177 25.492C14.7102 24.5338 14.9969 23.7944 15.5779 23.236C16.6342 22.2325 18.6412 21.7421 21.7347 21.7421C22.6326 21.7421 23.4852 21.7798 24.1794 21.8175ZM58.6155 41.02L58.6193 41.0183L58.6231 41.02H58.6155ZM58.6193 41.0183L68.379 36.7343L68.8015 36.508L68.7864 36.4703C68.7713 36.4476 68.7638 36.4306 68.7562 36.4137C68.7487 36.3967 68.7411 36.3797 68.726 36.3571C68.4695 35.8591 68.2884 35.3008 68.1451 34.6519L66.221 35.1574L65.542 35.2932C64.0028 35.595 59.951 36.3873 55.1221 37.3304C55.5741 39.4851 57.7715 40.6468 58.6193 41.0183ZM58.5552 32.1997C61.4525 32.1997 64.546 32.0941 67.7678 31.8903L67.7754 31.8828L67.7795 31.9657L67.7875 32.1337C67.8017 32.4374 67.8203 32.8343 67.8433 33.0523L49.4557 36.4929C48.8143 36.1005 47.1242 34.8028 46.4225 31.6791L46.6031 31.6887L46.7985 31.699L46.7991 31.699L46.8009 31.6991C47.2324 31.7217 47.8245 31.7528 48.4673 31.7922L48.6448 31.8025C51.2874 31.9544 55.5525 32.1997 58.5552 32.1997ZM46.0754 29.5513C52.3832 30.3209 60.1472 30.4869 67.7074 30.0267C67.7074 28.91 67.7376 28.2913 67.7678 27.9065C66.3564 27.651 64.9481 27.3935 63.5434 27.1366L63.5434 27.1366C56.4027 25.8309 49.3575 24.5426 42.4915 23.6284C42.6122 25.5977 43.8119 27.582 46.0754 29.5438V29.5513ZM99.865 39.1488C100.099 38.681 100.272 38.1906 100.37 37.685V37.6926C102.98 38.2077 105.738 38.7532 108.399 39.2797L110.904 39.775L121.067 41.8424C120.637 42.4687 119.731 43.5024 118.849 44.3625C117.37 44.4002 108.263 43.8117 99.865 39.1488ZM98.7633 40.688C98.3182 41.1558 97.7976 41.5859 97.2015 41.9631C97.389 42.0461 97.5765 42.1304 97.7646 42.2149L97.7647 42.215L97.7649 42.215L97.7651 42.2151L97.7653 42.2152L97.7655 42.2153L97.7657 42.2154L97.7658 42.2154C98.0389 42.3381 98.313 42.4613 98.5898 42.5818C99.206 42.8561 99.8222 43.1323 100.438 43.4084L100.445 43.4116C101.064 43.689 101.683 43.9663 102.302 44.2418C102.955 44.536 103.609 44.8284 104.264 45.1208C104.918 45.4132 105.573 45.7055 106.226 45.9998C106.332 46.047 106.438 46.0944 106.543 46.1418C107.873 46.7371 109.18 47.3221 110.662 47.4409C112.684 47.6069 114.774 47.2297 116.517 46.1658C116.527 46.1611 116.536 46.1556 116.545 46.1499C116.558 46.1417 116.571 46.1329 116.583 46.1249L116.583 46.1248L116.583 46.1247L116.6 46.113C115.106 46.0526 112.556 45.5773 110.987 45.1849C105.599 43.8343 100.914 41.7217 98.7633 40.6805V40.688ZM106.541 36.9846L106.535 36.9833V36.9909L106.541 36.9846ZM111.16 37.9265L106.541 36.9846C107.362 36.1391 108.309 34.7902 108.881 32.758C114.216 36.1232 124.085 37.1569 129.932 37.4738L128.823 38.7489C127.971 39.7298 126.907 40.4541 125.594 40.6201C124.132 40.8001 117.069 39.2345 114.381 38.6387L114.027 38.5603C113.667 38.4803 113.306 38.4013 112.944 38.3223C112.351 38.1926 111.755 38.0624 111.16 37.9265ZM117.739 29.2873C115.363 30.0569 112.707 30.6756 109.832 31.1434C115.272 34.6292 126.605 35.4743 131.494 35.678L135.38 31.2188C135.456 31.1283 135.531 31.0453 135.614 30.9547C133.396 31.1358 131.306 31.2339 129.404 31.2339C122.138 31.2339 118.886 29.9286 117.747 29.2948L117.739 29.2873ZM113.258 23.3567C117.581 22.7984 122.221 22.2476 126.96 21.9533C122.825 26.3522 114.623 28.3441 110.406 29.1137C111.635 27.8386 112.865 25.9447 113.031 23.3869L113.258 23.3567ZM138.066 23.236C137.017 22.2325 135.003 21.7421 131.909 21.7421C131.011 21.7421 130.166 21.7798 129.465 21.8175C128.672 23.0776 126.326 25.9296 120.365 28.3366C122.832 29.076 127.918 29.8909 137.38 28.9175C138.111 28.0046 138.919 26.8049 138.926 25.4845C138.926 24.5262 138.647 23.7868 138.066 23.2285V23.236ZM88.1171 35.2857C89.6563 35.5799 93.7081 36.3722 98.537 37.3229H98.5445C98.0918 39.4732 95.8886 40.6427 95.0436 41.0124L85.2801 36.7268L84.8576 36.5004L84.8727 36.4627C84.8896 36.4373 84.8971 36.4214 84.9057 36.403C84.9124 36.3886 84.9198 36.3727 84.9331 36.3495C85.1896 35.8516 85.3631 35.2932 85.514 34.6443L87.4381 35.1498L88.1171 35.2857ZM107.229 31.6942C106.814 31.7092 106.044 31.7545 105.184 31.8073L105.024 31.8165C102.383 31.9684 98.0983 32.2148 95.0964 32.2148C92.1991 32.2148 89.1055 32.1091 85.8837 31.9054C85.8801 31.9741 85.8761 32.0606 85.8716 32.1563L85.8716 32.1568L85.8715 32.1583V32.1585C85.8573 32.4619 85.8387 32.8574 85.8158 33.0749L104.203 36.5155C104.845 36.1232 106.527 34.8254 107.237 31.7017L107.229 31.6942ZM107.576 29.5513C101.268 30.3209 93.5044 30.4869 85.9441 30.0267V30.0342C85.9441 28.9175 85.9139 28.2988 85.8838 27.914C87.1102 27.6909 88.3344 27.4666 89.5561 27.2428C96.8873 25.8995 104.123 24.5737 111.16 23.6359C111.039 25.5977 109.84 27.5896 107.576 29.5513ZM76.822 47.9993C77.3577 48.0295 77.984 47.8257 78.4669 47.6296C78.9724 47.4183 79.4477 47.1316 79.8703 46.777C81.1378 45.7282 81.9754 44.2267 82.6167 42.7327C82.9983 41.844 83.2809 40.9273 83.5636 40.0106L83.5636 40.0105C83.7225 39.4953 83.8814 38.9801 84.0578 38.4697C84.0767 38.4131 84.1021 38.3537 84.1283 38.2926C84.2068 38.1094 84.2917 37.9114 84.2238 37.7303C84.1358 37.5024 83.8664 37.367 83.6208 37.2434C83.5085 37.187 83.4012 37.133 83.3184 37.0739C83.2656 37.0361 83.2128 36.9984 83.1901 36.9381C83.1599 36.8701 83.175 36.7871 83.1901 36.7117C83.7937 34.2671 84.3672 31.913 84.337 29.3627C84.337 28.7817 84.2842 28.2687 83.9371 27.8009C82.8129 26.2692 81.6735 24.7375 80.3607 23.3567C80.3104 23.3034 80.2586 23.2479 80.2052 23.1909C79.3531 22.2803 78.1143 20.9565 76.822 20.9423C75.5345 20.9494 74.3001 22.2696 73.4483 23.1807L73.367 23.2676L73.2833 23.3567C71.9705 24.7451 70.8387 26.2692 69.7069 27.8009C69.3598 28.2762 69.3146 28.7817 69.307 29.3627C69.2768 31.9054 69.8503 34.2595 70.4539 36.7117L70.4583 36.7333C70.4727 36.8027 70.488 36.8766 70.4539 36.9381C70.4354 36.9873 70.3919 37.0214 70.3519 37.0528C70.3429 37.0599 70.334 37.0669 70.3256 37.0739C70.2392 37.138 70.1262 37.1949 70.0087 37.2541L70.0087 37.2541C69.767 37.3758 69.5065 37.5069 69.4202 37.7303C69.3444 37.917 69.4354 38.1217 69.519 38.3096L69.5191 38.3098C69.5435 38.3648 69.5674 38.4184 69.5862 38.4697C69.7626 38.98 69.9214 39.4951 70.0803 40.0102L70.0803 40.0104L70.0804 40.0105C70.3631 40.9273 70.6457 41.8439 71.0273 42.7327C71.6687 44.2267 72.5062 45.7282 73.7738 46.777C74.1963 47.124 74.6641 47.4183 75.1772 47.6296C75.66 47.8257 76.2863 48.037 76.822 47.9993ZM15.4798 66.0171C15.4798 66.7415 15.178 67.1414 12.2882 68.922H12.2806V69.6614H16.2947V68.8994H13.4501C15.6986 67.5564 16.3475 66.9905 16.3475 65.9492C16.3475 64.908 15.5326 64.3496 14.3027 64.3496C13.1634 64.3496 12.4164 64.908 12.2505 65.8813L13.0351 65.9945C13.1559 65.4135 13.6086 65.0966 14.3027 65.0966C14.9969 65.0966 15.4798 65.4211 15.4798 66.0171ZM17.9697 67.0433C17.9697 65.1721 19.0411 64.3496 20.2408 64.3496C21.4405 64.3496 22.4968 65.1721 22.4968 67.0433C22.4968 68.9145 21.4329 69.7444 20.2257 69.7444C19.0185 69.7444 17.9697 68.9522 17.9697 67.0433ZM21.6668 67.0433C21.6668 65.8285 21.1085 65.1117 20.2408 65.1117C19.3731 65.1117 18.8072 65.8285 18.8072 67.0433C18.8072 68.258 19.3505 68.9824 20.2332 68.9824C21.116 68.9824 21.6668 68.2882 21.6668 67.0433ZM133.388 67.2847H134.226V71.7741H135.071V66.5227H133.388V67.2847ZM136.897 70.3782C136.897 69.7369 137.289 69.3144 138.013 69.1408C137.342 68.9673 136.98 68.5372 136.98 67.911C136.98 66.9678 137.893 66.4698 139.07 66.4698C140.247 66.4698 141.145 66.9678 141.145 67.911C141.145 68.5523 140.782 68.9673 140.103 69.1484C140.82 69.3144 141.205 69.7444 141.205 70.3782C141.205 71.344 140.262 71.8571 139.047 71.8571C137.832 71.8571 136.897 71.3365 136.897 70.3782ZM140.375 70.3179C140.375 69.7897 139.847 69.4653 139.055 69.4653C138.262 69.4653 137.719 69.7897 137.719 70.3179C137.719 70.846 138.247 71.178 139.047 71.178C139.847 71.178 140.375 70.846 140.375 70.3179ZM140.315 67.9864C140.315 67.4658 139.817 67.1489 139.062 67.1489C138.308 67.1489 137.802 67.4583 137.802 67.9864C137.802 68.5146 138.3 68.839 139.055 68.839C139.809 68.839 140.315 68.5146 140.315 67.9864ZM41.8351 171.589H39.0283V178.87H41.986C44.6796 178.87 45.1247 177.738 45.1247 176.81C45.1247 175.882 44.3551 175.362 43.9251 175.211C44.3627 175.075 44.9437 174.532 44.9437 173.634C44.9437 172.683 44.4004 171.589 41.8351 171.589ZM42.4462 173.996C42.4462 174.283 42.3406 174.547 41.8652 174.547H41.4125V173.483H41.8652C42.3029 173.483 42.4462 173.709 42.4462 173.996ZM42.6424 176.456C42.6424 176.75 42.5217 176.999 42.0312 176.999H41.405V175.905H42.0312C42.5217 175.905 42.6424 176.162 42.6424 176.456ZM48.4295 171.589H50.8742V178.87H48.4295V171.589ZM57.0235 171.589H54.5864V178.87H57.0235V175.513L58.4722 178.87H61.3393L59.2644 175.03L61.2563 171.589H58.3816L57.0235 174.554V171.589ZM64.2442 171.589H69.2014V173.732H66.6738V174.373H69.0203V176.086H66.6738V176.742H69.2014V178.878H64.2442V171.597V171.589ZM80.9492 171.476C78.8517 171.476 77.4256 172.985 77.4256 175.211C77.4256 177.482 78.7234 178.953 80.919 178.953C83.1147 178.953 84.42 177.595 84.42 175.301C84.42 175.037 84.4125 174.788 84.3823 174.494H80.9719V176.184H81.8773C81.7943 176.66 81.4774 176.939 81.0322 176.939C80.323 176.939 79.8929 176.297 79.8929 175.241C79.8929 174.185 80.3154 173.521 80.9794 173.521C81.3567 173.521 81.6434 173.679 81.7716 174.041L84.1861 173.649C83.839 172.148 82.6997 171.476 80.9492 171.476ZM89.6413 177.935L89.3772 178.87H86.8194L89.3923 171.589H91.8973L94.4852 178.87H91.9425L91.6784 177.935H89.6413ZM91.2333 176.282L90.6599 174.207L90.0864 176.282H91.2333ZM99.7216 171.589H97.3977V178.87H99.8423V175.513L101.706 178.87H104.03V171.589H101.593V174.962L99.7216 171.589ZM107.433 175.211C107.433 172.985 108.859 171.476 110.956 171.476C112.707 171.476 113.846 172.148 114.193 173.649L111.779 174.041C111.65 173.679 111.364 173.521 110.987 173.521C110.323 173.521 109.9 174.185 109.9 175.241C109.9 176.297 110.33 176.939 111.039 176.939C111.485 176.939 111.801 176.66 111.884 176.184H110.979V174.494H114.389C114.42 174.788 114.427 175.037 114.427 175.301C114.427 177.595 113.122 178.953 110.926 178.953C108.731 178.953 107.433 177.482 107.433 175.211ZM45.1419 193.613L45.1398 193.613V193.606L45.1419 193.613ZM45.1419 193.613L45.9321 193.455C46.1509 193.998 46.6489 194.3 47.3204 194.3C48.0447 194.3 48.4597 194.013 48.4597 193.508C48.4597 192.965 47.8638 192.826 47.195 192.67C46.3401 192.47 45.3662 192.243 45.3662 191.108C45.3662 190.233 46.1056 189.63 47.1846 189.63C48.2635 189.63 48.9728 190.105 49.2369 190.98L48.4673 191.131C48.2409 190.633 47.8335 190.377 47.2072 190.377C46.581 190.377 46.1735 190.656 46.1735 191.108C46.1735 191.688 46.7855 191.821 47.4663 191.97C48.32 192.156 49.2821 192.366 49.2821 193.508C49.2821 194.428 48.5125 195.032 47.3204 195.032C46.2292 195.032 45.4082 194.514 45.1419 193.613ZM54.2921 193.938H51.6664L51.259 194.964H50.3686L52.5567 189.713H53.4018L55.5974 194.964H54.7071L54.2921 193.938ZM51.923 189.29L51.5834 188.837C52.0391 188.358 52.5228 188.47 52.9746 188.576C53.3682 188.667 53.7375 188.754 54.0431 188.438L54.3827 188.898C53.8926 189.404 53.3912 189.284 52.9351 189.174C52.5556 189.083 52.2074 188.999 51.923 189.29ZM54.0205 193.259L52.9793 190.641L51.938 193.259H54.0205ZM59.121 189.652C57.8082 189.652 56.6387 190.475 56.6387 192.346C56.6387 194.255 57.7931 195.047 59.1059 195.047C60.4188 195.047 61.5959 194.217 61.5959 192.346C61.5959 190.475 60.4339 189.652 59.121 189.652ZM59.1286 190.414C60.117 190.414 60.7583 191.131 60.7583 192.346C60.7583 193.591 60.1321 194.285 59.1135 194.285C58.0949 194.285 57.4762 193.568 57.4762 192.346C57.4762 191.124 58.1402 190.414 59.1286 190.414ZM66.4248 189.713H67.8432C69.5635 189.713 70.3105 190.188 70.3105 191.561C70.3105 192.934 69.5636 193.41 67.8508 193.41H67.2623V194.964H66.4172V189.713H66.4248ZM67.9715 192.648C68.9675 192.648 69.4579 192.414 69.4579 191.554C69.4579 190.694 68.9675 190.467 67.9715 190.467H67.2698V192.648H67.9715ZM72.2044 193.938H74.8301L75.2451 194.964H76.1354L73.9398 189.713H73.0947L70.9066 194.964H71.7969L72.2044 193.938ZM73.5248 190.641L74.566 193.259H72.4835L73.5248 190.641ZM77.3275 192.512V189.713H78.1726V192.504C78.1726 193.757 78.5951 194.27 79.5156 194.27C80.4361 194.27 80.8587 193.764 80.8587 192.512V189.713H81.7037V192.512C81.7037 194.232 80.9643 195.04 79.5232 195.04C78.082 195.04 77.3426 194.24 77.3426 192.512H77.3275ZM84.5105 189.713H83.6655V194.964H86.7288V194.202H84.5105V189.713ZM87.7927 192.346C87.7927 190.475 88.9622 189.652 90.275 189.652C91.5879 189.652 92.7499 190.475 92.7499 192.346C92.7499 194.217 91.5728 195.047 90.2599 195.047C88.9471 195.047 87.7927 194.255 87.7927 192.346ZM91.9048 192.346C91.9048 191.131 91.2635 190.414 90.275 190.414C89.2866 190.414 88.6227 191.124 88.6227 192.346C88.6227 193.568 89.2413 194.285 90.2599 194.285C91.2785 194.285 91.9048 193.591 91.9048 192.346ZM97.3901 189.713H96.6054L94.1382 194.964H94.9229L97.3901 189.713ZM98.5747 193.613L98.5768 193.613C98.8431 194.514 99.6641 195.032 100.755 195.032C101.947 195.032 102.717 194.428 102.717 193.508C102.717 192.366 101.755 192.156 100.901 191.97C100.22 191.821 99.6084 191.688 99.6084 191.108C99.6084 190.656 100.016 190.377 100.642 190.377C101.268 190.377 101.676 190.633 101.902 191.131L102.672 190.98C102.408 190.105 101.698 189.63 100.619 189.63C99.5405 189.63 98.8011 190.233 98.8011 191.108C98.8011 192.243 99.775 192.47 100.63 192.67C101.299 192.826 101.895 192.965 101.895 193.508C101.895 194.013 101.48 194.3 100.755 194.3C100.084 194.3 99.5858 193.998 99.367 193.455L98.5768 193.613L98.5747 193.606V193.613ZM105.841 189.713H104.422H104.415V194.964H105.26V193.41H105.848C107.561 193.41 108.308 192.934 108.308 191.561C108.308 190.188 107.561 189.713 105.841 189.713ZM107.455 191.554C107.455 192.414 106.965 192.648 105.969 192.648H105.267V190.467H105.969C106.965 190.467 107.455 190.694 107.455 191.554Z" fill="black"/>
</svg>
